/* XPM */
static char * baie_xpm[] = {
"64 64 27 1",
" 	c #58A080",
".	c #308868",
"+	c #80B098",
"@	c #525252",
"#	c #59A080",
"$	c #4AB44A",
"%	c #73EE6A",
"&	c #60A083",
"*	c #316A31",
"=	c #ACF6AC",
"-	c #5CA081",
";	c #5AA081",
">	c #625AC5",
",	c #8362E6",
"'	c #68A890",
")	c #398B39",
"!	c #947BFF",
"~	c #6D9F87",
"{	c #5252AC",
"]	c #7D9E8E",
"^	c #C5B4FF",
"/	c #669F85",
"(	c #5DA082",
"_	c #6B9F87",
":	c #679F85",
"<	c #60A082",
"[	c #5FA082",
"                                                                ",
"      .                               .                         ",
"   .  .  .                         .  .  .                      ",
"    .   .                           .   .                       ",
"                                                                ",
"                                                                ",
"                                                                ",
"               .               .                                ",
"            .  .  .         .  .  .                             ",
".            .   .           .   .              .               ",
".  .                                         .  .  .            ",
"  .                                           .   .             ",
"                                                                ",
"                     +               +                          ",
"                  +  +  +         +  +  +                       ",
"                   @@@@@@#         +   +                       .",
"                  @@@@@@@@@@#                               .  .",
"                  @@$%%%$@@@@@                               .  ",
"                  @@$%%%%%%$@@&                                 ",
"                  @@@*$$%%%=@@@-@@@@@;                          ",
"                   @@@@@*$=%$@@@@@@@@@@                         ",
"                      @@@*$$$*@@>>,,>@@@-           '           ",
"                     @@@@@)$$)*)*,!!,,@@@@@;     '  '  '        ",
"                    ~@@,>@*))$$$)>!!,,{{@@@@@     '   '         ",
"  .                 @@,!)%%%%%%$$*,,,,>{>,>@@@                  ",
" .              .  ;@@!!*$%%%%$$$*,,,>>{,,,,@@#                 ",
"             .  . @@@@,!*$$$$$$$$*>>>,,,>>,,>@@              .  ",
"              .  @@@@{{>{)$$$$$$)*{>,!!!!,>,,@@               . ",
"                ]@@>,,>{{*)$$$)*{{{,!^^!!!>,,@@                 ",
"     +          @@>!!,,>{{****{{>{{,!^^!!!,>>@@                 ",
"  +  +  +       @@,!!,,>{{{{{{,!!!,>!!!!!!!{{@                  ",
"   +   +        @@>,,,>>{{{{,!!!!!!,>!!!!!!{@@                  ",
"                @@@,,>,,,>{,!!^^!!!!,,!!!!,{@@#                 ",
"                ;@@>,!!!!,>!!^^^^!!!!>!!!,>{{@@                 ",
"                @@@,!^^!!!,!!^^^^!!!!>,,,>{>>@@-                ",
"                @@,!!^^!!!,!!!^^!!!!!,{>>>,,,>@@                ",
"                @@,!!!!!!!!!!!!!!!!!!,{{>,,,,,@@                ",
"                @@,!!!!!!!!,!!!!!!!!!>{{>,,,,,@@                ",
".               @@>!!!!!!!!,,!!!!!!!,>{>{,,,,>@@                ",
"                -@>,!!!!!!,{,,!!!!,,>{>,>>,,>@@@                ",
"                 @@>,!!!,,,>{,,,,,>{{,,,,>>@@@@.  .             ",
"      '          /@@>,,,,>{{>>>{{{{>,,,,,>@@@@(  .              ",
"   '  '  '        @@@@>{{@>>,,,,,>{,!!,,,>@@;                   ",
"    '   '          _@@@@@@>,!!,,,,>,!!,,,{@@                    ",
"                     :@@@@>,!!,,,,>>,,,>>@@(                    ",
"                        &@@>,,,,,>@>>>>{@@@          +          ",
"                         @@@@>>>{@@@@@@@@@        +  +  +       ",
"                          @@@@@@@@@@@@@@<          +   +        ",
"                           [@@@@@@[                             ",
"      .                                                         ",
"   .  .  .                                                      ",
"    .   .                                                       ",
"                                                                ",
"                                    '        .                  ",
"                                 '  '  '  .  .  .               ",
"               .                  '   '    .   .               .",
"            .  .  .                                         .  .",
".            .   .                                    '      .  ",
".  .                                               '  '  '      ",
"  .                                                 '   '       ",
"                                                                ",
"                     +                                          ",
"                  +  +  +                                       ",
"                   +   +                                        "};
