/* XPM */
static char * exit_xpm[] = {
"64 64 7 1",
" 	c #58A080",
".	c #308868",
"+	c #80B098",
"@	c #287020",
"#	c #284008",
"$	c #108050",
"%	c #68A890",
"                                                                ",
"      .                               .                         ",
"   .  .  .                         .  .  .                      ",
"    .   .                           .   .                       ",
"                                                                ",
"                                                                ",
"                                                                ",
"               .               .                                ",
"            .  .  .         .  .  .                             ",
".            .   .           .   .              .               ",
".  .                                         .  .  .            ",
"  .                                           .   .             ",
"                                                                ",
"                     +               +                          ",
"                  +  +  +         +  +  +                       ",
"                  .   .@   .      .   .@   .                   .",
"                .    .@+@     . .    .@+@     .             .  .",
"                 @@@..++@.#@#    @@@..++@.#@#                .  ",
"                $+++@@+ @#+++#. $+++@@+ @#+++#.                 ",
"                 $+++@  #. +#@.  $+++@  #. +#@.                 ",
"                  $   @.#..@@.    $   @.#..@@.                  ",
"                $$$@@ @@@.####  $$$@@ @@@.####      %           ",
"                +++ @@ #.#.   #@+++ @@ #.#.   #  %  %  %        ",
"                @+  .@@##....#..@+  .@@##....#.   %   %         ",
"  .             .@....##@@@##@@ .@....##@@@##@@                 ",
" .               .@@########@@.  .@@########@@.                 ",
"             .  .@  .#@##@..#.  .@  .#@##@..#.               .  ",
"              . @  .@@@@#@@@.#. @  .@@@@#@@@.#.               . ",
"                @####...@#####@.@####...@#####@                 ",
"     +          .@@@@#.@#@@@@@@..@@@@#.@#@@@@@@                 ",
"  +  +  +        ..@@@##@@@..    ..@@@##@@@..                   ",
"   +   +          .   .@   .      .   .@   .                    ",
"                .    .@+@     . .    .@+@     .                 ",
"                 @@@..++@.#@#    @@@..++@.#@#                   ",
"                $+++@@+ @#+++#. $+++@@+ @#+++#.                 ",
"                 $+++@  #. +#@.  $+++@  #. +#@.                 ",
"                  $   @.#..@@.    $   @.#..@@.                  ",
"                $$$@@ @@@.####  $$$@@ @@@.####                  ",
".               +++ @@ #.#.   #@+++ @@ #.#.   #                 ",
"                @+  .@@##....#..@+  .@@##....#..                ",
"                .@....##@@@##@@ .@....##@@@##@@.  .             ",
"      %          .@@########@@.  .@@########@@.  .              ",
"   %  %  %      .@  .#@##@..#.  .@  .#@##@..#.                  ",
"    %   %       @  .@@@@#@@@.#. @  .@@@@#@@@.#.                 ",
"                @####...@#####@.@####...@#####@                 ",
"                .@@@@#.@#@@@@@@..@@@@#.@#@@@@@@      +          ",
"                 ..@@@##@@@..    ..@@@##@@@..     +  +  +       ",
"                  .   .@   .      .   .@   .       +   +        ",
"                                                                ",
"      .                                                         ",
"   .  .  .                                                      ",
"    .   .                                                       ",
"                                                                ",
"                                    %        .                  ",
"                                 %  %  %  .  .  .               ",
"               .                  %   %    .   .               .",
"            .  .  .                                         .  .",
".            .   .                                    %      .  ",
".  .                                               %  %  %      ",
"  .                                                 %   %       ",
"                                                                ",
"                     +                                          ",
"                  +  +  +                                       ",
"                   +   +                                        "};
