/* XPM */
static char * ground_xpm[] = {
"64 64 4 1",
" 	c #58A080",
".	c #308868",
"+	c #80B098",
"@	c #68A890",
"                                                                ",
"      .                               .                         ",
"   .  .  .                         .  .  .                      ",
"    .   .                           .   .                       ",
"                                                                ",
"                                                                ",
"                                                                ",
"               .               .                                ",
"            .  .  .         .  .  .                             ",
".            .   .           .   .              .               ",
".  .                                         .  .  .            ",
"  .                                           .   .             ",
"                                                                ",
"                     +               +                          ",
"                  +  +  +         +  +  +                       ",
"                   +   +           +   +                       .",
"                                                            .  .",
"                                                             .  ",
"                                                                ",
"                                                                ",
"                                                                ",
"                             .                      @           ",
"                          .  .  .                @  @  @        ",
"                           .   .                  @   @         ",
"  .                                                             ",
" .              .                     @                         ",
"             .  .  .               @  @  @                   .  ",
"              .   .                 @   @                     . ",
"                                                                ",
"     +                                                          ",
"  +  +  +                                                       ",
"   +   +                                                        ",
"                                                                ",
"                                      .                         ",
"                                   .  .  .                      ",
"                                    .   .                       ",
"                                                                ",
"                    @                                           ",
".                @  @  @                                        ",
"                  @   @                        .                ",
"                                            .  .  .             ",
"      @                         .            .   .              ",
"   @  @  @                   .  .  .                            ",
"    @   @                     .   .                             ",
"                                                                ",
"                                                     +          ",
"                                                  +  +  +       ",
"                                                   +   +        ",
"                                                                ",
"      .                                                         ",
"   .  .  .                                                      ",
"    .   .                                                       ",
"                                                                ",
"                                    @        .                  ",
"                                 @  @  @  .  .  .               ",
"               .                  @   @    .   .               .",
"            .  .  .                                         .  .",
".            .   .                                    @      .  ",
".  .                                               @  @  @      ",
"  .                                                 @   @       ",
"                                                                ",
"                     +                                          ",
"                  +  +  +                                       ",
"                   +   +                                        "};
