/* XPM */
static char * pikachu_xpm[] = {
"64 64 401 2",
"  	c #58A080",
". 	c #308868",
"+ 	c #224435",
"@ 	c #0C1F17",
"# 	c #1F3E30",
"$ 	c #292929",
"% 	c #1B382B",
"& 	c #29292B",
"* 	c #06140E",
"= 	c #224334",
"- 	c #234637",
"; 	c #292B28",
"> 	c #21352B",
", 	c #234536",
"' 	c #52525C",
") 	c #F5BD20",
"! 	c #613008",
"~ 	c #53525A",
"{ 	c #F5BD1E",
"] 	c #F4BE20",
"^ 	c #3E4032",
"/ 	c #010503",
"( 	c #030906",
"_ 	c #05110B",
": 	c #0B1D15",
"< 	c #263E2F",
"[ 	c #F4BC1F",
"} 	c #F5BD22",
"| 	c #284234",
"1 	c #203D30",
"2 	c #000000",
"3 	c #1E3531",
"4 	c #52525A",
"5 	c #51545B",
"6 	c #12291F",
"7 	c #4F3726",
"8 	c #38483D",
"9 	c #62A080",
"0 	c #924818",
"a 	c #8E451E",
"b 	c #914220",
"c 	c #41413C",
"d 	c #533625",
"e 	c #2A2A27",
"f 	c #9D5201",
"g 	c #F7E754",
"h 	c #F6E652",
"i 	c #984A12",
"j 	c #DBA63D",
"k 	c #91441C",
"l 	c #814328",
"m 	c #934C17",
"n 	c #F6E551",
"o 	c #F5E551",
"p 	c #2A2A2A",
"q 	c #573423",
"r 	c #880016",
"s 	c #890117",
"t 	c #860116",
"u 	c #E8B336",
"v 	c #85412B",
"w 	c #81412D",
"x 	c #924715",
"y 	c #F4E045",
"z 	c #583526",
"A 	c #880018",
"B 	c #F03D43",
"C 	c #F03C45",
"D 	c #EE3D45",
"E 	c #ED1A23",
"F 	c #ED1B24",
"G 	c #EC1B21",
"H 	c #890016",
"I 	c #870013",
"J 	c #791D16",
"K 	c #781F17",
"L 	c #F7E753",
"M 	c #F8E753",
"N 	c #890119",
"O 	c #282A29",
"P 	c #000100",
"Q 	c #7C261C",
"R 	c #EC1A25",
"S 	c #EB1C24",
"T 	c #EE1B22",
"U 	c #BF0E18",
"V 	c #BE0F16",
"W 	c #860018",
"X 	c #870017",
"Y 	c #8A0017",
"Z 	c #6D3428",
"` 	c #ED1B26",
" .	c #870217",
"..	c #880013",
"+.	c #EC1A23",
"@.	c #EE1C25",
"#.	c #BF1017",
"$.	c #BE1012",
"%.	c #BD1016",
"&.	c #890115",
"*.	c #850015",
"=.	c #000002",
"-.	c #683327",
";.	c #EE1B24",
">.	c #860114",
",.	c #F5E752",
"'.	c #FDF5A4",
").	c #FFF5A3",
"!.	c #FDF6A5",
"~.	c #FFF7A2",
"{.	c #FEF6A3",
"].	c #BD0E15",
"^.	c #BD0D17",
"/.	c #BE0E18",
"(.	c #821617",
"_.	c #5C4032",
":.	c #7D140E",
"<.	c #F6E750",
"[.	c #F6E653",
"}.	c #FDF5A2",
"|.	c #010101",
"1.	c #C00F17",
"2.	c #ED1C22",
"3.	c #79261C",
"4.	c #618065",
"5.	c #858B5F",
"6.	c #4D7E64",
"7.	c #DE9401",
"8.	c #F7E652",
"9.	c #FFFFFD",
"0.	c #010100",
"a.	c #F7E650",
"b.	c #81231A",
"c.	c #7B261C",
"d.	c #7F5130",
"e.	c #D8BB41",
"f.	c #4A644F",
"g.	c #534234",
"h.	c #9E5101",
"i.	c #010000",
"j.	c #FFFFFF",
"k.	c #F7BC20",
"l.	c #A349A3",
"m.	c #801F19",
"n.	c #6BA281",
"o.	c #59A080",
"p.	c #D78D15",
"q.	c #EFDF37",
"r.	c #874728",
"s.	c #5C372B",
"t.	c #DC9401",
"u.	c #6FA483",
"v.	c #5AA080",
"w.	c #6BA77F",
"x.	c #DF9502",
"y.	c #EFC816",
"z.	c #6B4A37",
"A.	c #D97E1A",
"B.	c #9B5301",
"C.	c #F5E753",
"D.	c #E55940",
"E.	c #E75B42",
"F.	c #83B08B",
"G.	c #65A57F",
"H.	c #DD9201",
"I.	c #DE9400",
"J.	c #F7E851",
"K.	c #88441F",
"L.	c #6E4A39",
"M.	c #F5E552",
"N.	c #E55A43",
"O.	c #E65A41",
"P.	c #C42017",
"Q.	c #B7CFA6",
"R.	c #68A890",
"S.	c #66A580",
"T.	c #9A5200",
"U.	c #984E08",
"V.	c #703D2F",
"W.	c #E65A43",
"X.	c #F8E654",
"Y.	c #9D5200",
"Z.	c #F8BE1F",
"`.	c #E75941",
" +	c #C32019",
".+	c #98BD98",
"++	c #6AA780",
"@+	c #9C5002",
"#+	c #594F3C",
"$+	c #6E2F22",
"%+	c #E65A3F",
"&+	c #9B5203",
"*+	c #9C5100",
"=+	c #F6BE23",
"-+	c #C32017",
";+	c #C31F16",
">+	c #C61F16",
",+	c #77AE98",
"'+	c #9E5204",
")+	c #F4E651",
"!+	c #F7E553",
"~+	c #4E4434",
"{+	c #6E4738",
"]+	c #C42608",
"^+	c #F6BE1F",
"/+	c #F6BE21",
"(+	c #C51E16",
"_+	c #C61F17",
":+	c #7EAF97",
"<+	c #7EAF83",
"[+	c #F3BD1F",
"}+	c #8E681C",
"|+	c #3D5D49",
"1+	c #80B098",
"2+	c #683624",
"3+	c #161817",
"4+	c #171717",
"5+	c #181818",
"6+	c #7DAF96",
"7+	c #8AB588",
"8+	c #F4BD22",
"9+	c #BA9B03",
"0+	c #623108",
"a+	c #252525",
"b+	c #242424",
"c+	c #6AA78A",
"d+	c #A9C69D",
"e+	c #161616",
"f+	c #181617",
"g+	c #8DB79B",
"h+	c #5FA181",
"i+	c #F5BF21",
"j+	c #18181A",
"k+	c #242623",
"l+	c #262626",
"m+	c #191718",
"n+	c #B60F17",
"o+	c #860B10",
"p+	c #72AA90",
"q+	c #91B9A1",
"r+	c #9D5103",
"s+	c #101211",
"t+	c #242625",
"u+	c #B60F19",
"v+	c #B50E16",
"w+	c #70090C",
"x+	c #590709",
"y+	c #82B19A",
"z+	c #9EC098",
"A+	c #5D060C",
"B+	c #171719",
"C+	c #151716",
"D+	c #171918",
"E+	c #B71018",
"F+	c #B80F16",
"G+	c #B70D16",
"H+	c #B80E17",
"I+	c #8FB8A4",
"J+	c #418C69",
"K+	c #5C3418",
"L+	c #F5BE23",
"M+	c #F7BD1E",
"N+	c #583521",
"O+	c #302E31",
"P+	c #5C070E",
"Q+	c #EE1C27",
"R+	c #262628",
"S+	c #242422",
"T+	c #262427",
"U+	c #F7BC22",
"V+	c #252324",
"W+	c #262425",
"X+	c #B80E19",
"Y+	c #B51017",
"Z+	c #B40F16",
"`+	c #94B8A2",
" @	c #97500E",
".@	c #9C5203",
"+@	c #5B090F",
"@@	c #161614",
"#@	c #262624",
"$@	c #171715",
"%@	c #84AC8E",
"&@	c #62A381",
"*@	c #934D0E",
"=@	c #5B3625",
"-@	c #6F1D18",
";@	c #181715",
">@	c #B71017",
",@	c #633207",
"'@	c #5E341E",
")@	c #060906",
"!@	c #711011",
"~@	c #DD9300",
"{@	c #DE9302",
"]@	c #58331C",
"^@	c #711F18",
"/@	c #840B10",
"(@	c #5D080D",
"_@	c #9D5203",
":@	c #5D070A",
"<@	c #EE1A26",
"[@	c #171516",
"}@	c #70090D",
"|@	c #5C070C",
"1@	c #000302",
"2@	c #9B4D0E",
"3@	c #9E5302",
"4@	c #9D4E1C",
"5@	c #F5DE4C",
"6@	c #5B060B",
"7@	c #5D060E",
"8@	c #EF1C25",
"9@	c #EF1C23",
"0@	c #181816",
"a@	c #161618",
"b@	c #71080D",
"c@	c #934E1B",
"d@	c #DC9402",
"e@	c #EA1B23",
"f@	c #252523",
"g@	c #252527",
"h@	c #151618",
"i@	c #242426",
"j@	c #272526",
"k@	c #5D3517",
"l@	c #810A10",
"m@	c #181619",
"n@	c #7FA494",
"o@	c #91A89F",
"p@	c #820910",
"q@	c #643008",
"r@	c #4F261C",
"s@	c #A11D15",
"t@	c #602E23",
"u@	c #BF392F",
"v@	c #603009",
"w@	c #561F18",
"x@	c #EBEBEB",
"y@	c #71A18B",
"z@	c #629F83",
"A@	c #933428",
"B@	c #621D15",
"C@	c #50261C",
"D@	c #990503",
"E@	c #B60F16",
"F@	c #6C241B",
"G@	c #733E30",
"H@	c #634435",
"I@	c #53271E",
"J@	c #599F7F",
"K@	c #52241B",
"L@	c #450906",
"M@	c #402E23",
"N@	c #5A080A",
"O@	c #ECEAEB",
"P@	c #EBEBE9",
"Q@	c #6F997E",
"R@	c #5B9F80",
"S@	c #7F0A12",
"T@	c #502E23",
"U@	c #3C2E23",
"V@	c #5D080B",
"W@	c #3D3226",
"X@	c #383428",
"Y@	c #5A080C",
"Z@	c #5C060F",
"`@	c #3C140E",
" #	c #432C21",
".#	c #DE9F15",
"+#	c #4F3924",
"@#	c #F4BC1D",
"##	c #B56E17",
"$#	c #413E30",
"%#	c #423E2F",
"&#	c #463729",
"*#	c #F8BD21",
"=#	c #F4BC21",
"-#	c #040D08",
";#	c #492F1C",
">#	c #DF9301",
",#	c #743A1A",
"'#	c #4E3928",
")#	c #52311E",
"!#	c #4B3C26",
"~#	c #D6A91E",
"{#	c #CE870B",
"]#	c #060D08",
"^#	c #904A1B",
"/#	c #5B2C14",
"(#	c #562A17",
"_#	c #C67C26",
":#	c #050503",
"<#	c #4A3F22",
"[#	c #98A845",
"}#	c #EEBA0E",
"|#	c #995308",
"1#	c #8E4D20",
"2#	c #583A17",
"3#	c #CDC34C",
"4#	c #EFB404",
"                                                                                                                                ",
"            .                                                               .                                                   ",
"      .     .     .                                                   .     .     .                                             ",
"        .       .                                                       .       .                                               ",
"                                                                                                                                ",
"                                    +                                                                                           ",
"                                  + @ +                                                                                         ",
"                              .   # $ +                       .                                                                 ",
"                        .     .   % & * =               .     .     .                                                           ",
".                         .     - ; $ $ >                 .       .                             .                               ",
".     .                         , $ ' ) !                                                 .     .     .                         ",
"    .                           , ~ { ] { ^                                     / ( ( _ :   .       .                           ",
"                                < [ } ) [ |                               / 1 2 3 4 5 6 _                                       ",
"                                7 ) ) ) ) 8 9 0 a   b                 / 2 c 4 4 4 $ $ /                                         ",
"                                d ) ) ) ) e f g h i j k           l m n o 4 4 & p $ 2 /                                         ",
"                                q ) r s r r r r r t r u v     w x y h h h h $ $ $ 2 2                                         . ",
"                                z A B C C D E F G F F H I J K ) L M h h N A O O 2 P                                     .     . ",
"                                Q B F F R F S T F F F E E U V W r r L X F Y 2 2 /                                         .     ",
"                              Z F ` r H  .t ..t r ` +.@.#.$.%.H V ` &.*.s =./                                                   ",
"                              -.;.>.) ,.'.).!.~.{.s  .r ].^.V  .V r /.F +.(.                                                    ",
"                              _.:.L n <.h {.{.[.}.o o |.s r A 1.S @.r V 2.3.                          4.5.<.6.                  ",
"                                2 7.2 L 8.<.L h h L P 9.2 0.a.A H r F b.c.                          d.e.h o [.f.                ",
"                              g.h.i.j.k.h h h [.h h i.2 l.2 h h h o m.n.o.                        p.q.h h h h r.                ",
"                              s.t.l.2 ) h L h h o h ) 2 2 k.h h <.h 2 u.                    v.w.x.h h h h L h y.z.              ",
"    .                         A.) i.f h h B.7.h h C.h h h 8.D.E.h k.2 F.                  G.H.I.,.h h h h ,.h J.K.              ",
"  .                         L.h h h h [.h 8.n o ,.o [.C.M.N.O.D.P.} 2 Q.    R.          S.T.a.[.<.h h h h h [.o U.              ",
"                          . V.W.<.h 8.a.h 7.7.L h X.Y.h Z.E.`.P. +Z.] 2 .+  R.    R.  ++@+h [.<.n h h h h h h L 8.#+      .     ",
"                            $+%+) { h &+T.) ) T.*+*+=+] ]  +-+;+>+) ) 2 ,+      R.    '+J.)+<.,.M h h h h h !+h <.~+        .   ",
"                            {+]+^+) /+) ) ^+) { ) { ) { ) ) (+_+) [ ) i.:+          <+*+[+L h L h h C.h ,.h <.,.}+|+            ",
"          1+                  2+) ] ) ) { ) ) ^+) ) ) ] ) ) /+) ) 3+4+5+4+6+      7+f ) /+8+{ [.h h h h h [.h 9+*               ",
"    1+    1+    1+              0+) ) k.) ) ) ) k.) k.) ) ) ) 4+4+a+b+a+2 c+    d+f ) ) ) ) ) /+) L h h h 8./ _                 ",
"      1+      1+                0+4+e+) ) ) ) k.) ) ) } { 5+f+b+a+4+4+4+2 c+  g+Y.) ) ) ) [ ) ) ) ) ) h / (                     ",
"                                h+3+a+4+) } [ k.i+k.) } j+a+k+l+m+n+o+n+|.p+  q+r+) ) ) /+{ ) ] ) ) / (                         ",
"                                s+4+a+t+5+{ ) [ ) } ) 5+a+a+4+4+u+u+v+w+x+y+.   z+0+^+/+) } ) ) ( (                             ",
"                                A+F 4+t+b+B+C+/+) ) 5+a+a+D+n+E+F+G+u+H+|.I+.     J+K+) L+M+) N+                                ",
"                              O+P+Q+F 4+R+S+T+e+U+4+V+W+4+v+X+Y+n+Y+n+Z+v+i.`+  .      @) 8+.@                                  ",
"                              +@2.F S ` @@B+#@l+$@a+t+@@F ` Y+n+Y+H+H+F+n+n+i.%@&@( *@[ ) M+} =@                                ",
"                            -@S F n+F F F F 4+4+a+a+;@F +.F @.v+o+n+Y+u+v+>@n+P ,@7.7.I.) t.'@)@                                ",
".                           !@F ;.n+F F F F 2.4+a+a+4+F F F F F o+n+E+n+n+n+H+2 7.~@{@7.]@d                                     ",
"                          ^@F ;.F /@F ` F F 4+a+t+4+F F @.+.;.F 2.o+H+n+n+n+(@h 2 7.7.2       .                                 ",
"                        _@:@2.<@F o+F F F F [@t+a+3+F F F F F E F F }@n+v+|@h g {@2 f f 1@    .     .                           ",
"            R.          2@h (@S ` o+G F F 4+l+a+4+2.2.F F @.F @.2.F F P+|@h h C.,.2 2 3@r+i.      .                             ",
"      R.    R.    R.  4@5@L 6@7@w+8@@.F F 4+a+j+F F F F ` F ` E 9@0@a@4+b@) h h 7.2 Y.h.h.2                                     ",
"        R.      R.      c@d@[.B.}@e@F 4+4+f@g@4+F F F F @.@.3+4+h@i@j@l+4+2 r+h 0+0+r+i./                                       ",
"                          k@0+  f+j+4+a+4+4+4+4+4+4+4+4+4+4+g@a+a+a+4+f+F l@i.2 |.2 2                                           ",
"                                e+a+3+a+m@b+5+V+a+a+a+a+a+a+f@a+e+f+n@o@2.p@P q@2                         1+                    ",
"                              r@2.4+4+4+4+4+4+4+4+f+f+4+4+4+4+4+F s@t@u@l@l@l@2 v@2                 1+    1+    1+              ",
"                              w@n+j.j.$@l+4+n+x@x@n+n+y@z@A@v+x@j.l@F l@B@l@l@2 |.                    1+      1+                ",
"                              C@D@v+4+g@b+4+H+Y+H+E@F@G@H@n+n+v+n+F l@I@J@K@L@/                                                 ",
"            .                   M@  5+a+3+P+N@O@x@n+u+x@P@u+n+Q@R@S@T@  U@V@(                                                   ",
"      .     .     .             W@X@4+f+|@/+U+Y@P+A+6@|@|@|@Z@(@6@V@`@ #.#U+(                                                   ",
"        .       .                 +#/+) @#} ) x.##$#%#&#*#U+{ =#) } ) { ] -#                                                    ",
"                                    ;#0+>#I.>#,#_       '#)#) k.) { f Y.-#                                                      ",
"                                  !#~#{ ) ) {#]#            ^#/#(#0+~@{@_#:#              .                                     ",
"                                <#[#f h }#|#2                     1#{@7.x.2   R.    .     .     .                               ",
"                              .   2#2 2 B.                      2 3#h.h 4#2 R.        .       .                               . ",
"                        .     .     .                             2 P 2 2                                               .     . ",
".                         .       .                                                                         R.            .     ",
".     .                                                                                               R.    R.    R.            ",
"    .                                                                                                   R.      R.              ",
"                                                                                                                                ",
"                                          1+                                                                                    ",
"                                    1+    1+    1+                                                                              ",
"                                      1+      1+                                                                                "};
